<?xml version="1.0" standalone="no"?>
<svg version="1.0" xmlns="http://www.w3.org/2000/svg"
 width="130.000000pt" height="130.000000pt" viewBox="0 0 130.000000 130.000000"
 preserveAspectRatio="xMidYMid meet">
<metadata>
Created by potrace 1.10, written by Peter Selinger 2001-2011
</metadata>
<g transform="translate(0.000000,130.000000) scale(0.100000,-0.100000)"
fill="#000000" stroke="none">
<path d="M470 1128 c-119 -10 -172 -29 -207 -75 -25 -32 -28 -46 -33 -147 -3
-61 -2 -152 2 -203 14 -195 59 -269 179 -292 58 -12 62 -14 44 -27 -19 -14
-41 -19 -60 -14 -5 2 -45 4 -88 6 -70 3 -79 1 -92 -19 -8 -12 -17 -51 -21 -87
-9 -92 -7 -93 174 -96 105 -1 154 2 173 12 22 11 28 11 42 -4 15 -14 22 -14
52 -3 19 7 41 9 47 4 7 -4 95 -9 195 -10 169 -1 184 0 208 18 18 15 25 30 25
54 0 19 -4 37 -10 40 -5 3 -10 19 -10 34 0 49 -53 76 -99 51 -13 -6 -31 -4
-60 7 -36 14 -47 14 -81 3 -32 -10 -46 -11 -66 -1 -15 6 -25 13 -23 15 2 3 32
7 67 10 102 9 137 22 175 67 44 50 55 96 68 269 23 304 -17 371 -225 385 -159
10 -273 11 -376 3z m493 -56 c67 -30 77 -60 77 -234 -1 -152 -17 -274 -45
-327 -26 -51 -77 -68 -230 -74 -71 -3 -187 -2 -256 2 -147 9 -187 26 -212 89
-39 98 -52 418 -19 481 41 81 95 92 429 86 183 -3 218 -6 256 -23z m-425 -745
c48 -45 11 -127 -58 -127 -69 0 -107 82 -57 127 41 38 73 38 115 0z m132 16
c0 -7 -10 -13 -21 -13 -20 0 -21 -4 -17 -65 4 -62 3 -65 -19 -65 -22 0 -23 4
-23 65 0 58 -2 65 -20 65 -11 0 -20 6 -20 13 0 8 19 12 60 12 41 0 60 -4 60
-12z m132 -10 c25 -22 30 -59 14 -92 -33 -62 -120 -55 -145 12 -28 73 70 132
131 80z m-507 -28 l12 -40 13 43 c10 33 18 42 35 42 20 0 23 -7 29 -61 4 -33
10 -67 13 -75 3 -9 -2 -14 -15 -14 -20 0 -31 23 -33 70 0 18 -5 11 -15 -22 -9
-28 -21 -48 -29 -48 -8 0 -20 20 -29 48 -10 33 -15 40 -15 22 -2 -43 -13 -70
-29 -70 -12 0 -14 9 -8 53 3 28 6 62 6 75 0 19 5 23 27 20 21 -2 29 -11 38
-43z m653 17 c2 -13 -2 -30 -8 -38 -10 -11 -7 -21 14 -49 l27 -35 -25 0 c-31
0 -76 64 -57 83 16 16 14 47 -4 47 -12 0 -15 -14 -15 -65 0 -58 -2 -65 -20
-65 -18 0 -20 7 -20 76 l0 75 53 -3 c46 -3 52 -6 55 -26z m122 14 c0 -9 -8
-12 -24 -9 -39 8 -40 -15 -2 -38 38 -22 47 -54 24 -77 -17 -17 -73 -15 -88 3
-10 12 -7 14 21 12 43 -3 50 13 14 33 -44 24 -53 45 -31 69 22 24 86 30 86 7z"/>
<path d="M425 1034 c-51 -8 -82 -24 -94 -50 -15 -34 -13 -272 3 -357 16 -85
37 -108 108 -118 68 -10 335 -10 412 0 77 10 100 35 115 128 17 101 19 301 3
339 -22 53 -44 57 -292 60 -124 1 -238 0 -255 -2z m496 -53 c20 -16 24 -29 26
-92 2 -52 0 -65 -6 -44 -14 53 -38 99 -60 119 -11 11 -21 23 -21 28 0 15 37 8
61 -11z m-511 -206 c0 -187 -2 -214 -15 -209 -8 4 -17 16 -20 28 -18 81 -23
146 -22 249 2 105 4 120 21 133 11 8 23 14 28 14 4 0 8 -97 8 -215z m120 0 l0
-215 -45 0 -45 0 0 209 0 210 43 4 c23 2 43 4 45 5 1 1 2 -95 2 -213z m300
187 c56 -29 65 -56 65 -194 0 -121 -1 -128 -25 -153 -40 -44 -79 -55 -190 -55
l-100 0 0 213 0 212 112 -5 c62 -3 124 -11 138 -18z m100 -357 c0 -17 -35 -55
-50 -55 -15 0 -12 9 13 40 25 32 37 37 37 15z"/>
<path d="M680 773 l0 -133 43 0 c67 0 77 17 77 131 0 52 -4 100 -9 108 -5 8
-32 17 -60 21 l-51 6 0 -133z m90 8 c0 -80 -8 -103 -34 -99 -19 3 -21 10 -24
81 -3 91 9 119 39 91 14 -13 19 -31 19 -73z"/>
<path d="M449 306 c-21 -46 7 -95 46 -80 38 15 25 104 -15 104 -12 0 -25 -10
-31 -24z"/>
<path d="M722 318 c-20 -20 -15 -76 8 -88 25 -13 38 -6 51 27 7 19 6 32 -6 49
-17 26 -35 30 -53 12z"/>
</g>
</svg>
