<svg id="Layer_1" data-name="Layer 1" xmlns="http://www.w3.org/2000/svg" viewBox="0 0 300 301.57"><defs><style>.cls-1{fill:#27aae1;}.cls-2{fill:#2b3990;}</style></defs><path class="cls-1" d="M146.86,293.73C65.88,293.73,0,227.85,0,146.86S65.88,0,146.86,0a145.84,145.84,0,0,1,126,71.31l-2.53,1.52A142.93,142.93,0,0,0,146.86,3C67.51,3,3,67.51,3,146.86S67.51,290.77,146.86,290.77Z"/><path class="cls-2" d="M158.33,301.57C75.86,301.57,8.76,234.47,8.76,152S75.86,2.42,158.33,2.42a148.54,148.54,0,0,1,128.3,72.63l-2.54,1.52A145.59,145.59,0,0,0,158.33,5.38C77.49,5.38,11.72,71.15,11.72,152S77.49,298.62,158.33,298.62Z"/><path class="cls-2" d="M35,167.53V155q14.07,5,22.34,5a20.25,20.25,0,0,0,8.92-1.67,5.44,5.44,0,0,0,3.4-5.16,4.47,4.47,0,0,0-1.51-3.5,15.51,15.51,0,0,0-4.38-2.49l-13.06-5.16q-15.32-6.09-15.32-16.16a15.2,15.2,0,0,1,3.44-9.57,21.85,21.85,0,0,1,9.28-6.76Q54,107.08,65,107.09a91.09,91.09,0,0,1,18.85,2.3v12.8q-11.37-4-19.35-4a22,22,0,0,0-8.39,1.36q-3.26,1.36-3.26,4A3.69,3.69,0,0,0,54,126.22q1.15,1.13,7.06,3.57l14.46,5.91q7.6,3.09,10.19,7.08a16.14,16.14,0,0,1,2.53,8.72,16.45,16.45,0,0,1-3.21,9.81,21.27,21.27,0,0,1-9.67,7.08A38.88,38.88,0,0,1,60.75,171q-3.49,0-8.73-.37A122.78,122.78,0,0,1,35,167.53Z"/><path class="cls-2" d="M137.33,169.6h-13.9V128.93q0-4.46-.65-5.53a2,2,0,0,0-1.83-1.07q-3.48,0-6.52,7.72V169.6h-13.9V108.49h13.9l-.68,11.77h.73a29.78,29.78,0,0,1,5.22-9.35,9.62,9.62,0,0,1,7.47-3.82,9.34,9.34,0,0,1,6.76,2.9q2.94,2.9,3.4,10.27H138a28.17,28.17,0,0,1,4.64-9.43,8.86,8.86,0,0,1,7.18-3.74,9,9,0,0,1,5.54,1.91,10.66,10.66,0,0,1,3.71,5.57q1.16,3.66,1.16,14.19V169.6h-13.9V128.93q0-4.46-.65-5.53a2,2,0,0,0-1.83-1.07q-3.48,0-6.52,7.72Z"/><path class="cls-2" d="M227.08,168.12A64.11,64.11,0,0,1,209.5,171a31.54,31.54,0,0,1-12.06-2.28,17.92,17.92,0,0,1-8.29-6.22q-2.7-3.94-2.7-11.93V121H173.28V109.9h13.17V94.65h16.66V109.9h22.56V121H203.11v25.85c0,3.93.48,6.56,1.46,7.89a8.25,8.25,0,0,0,4,2.9,15.47,15.47,0,0,0,5.27.89,34.76,34.76,0,0,0,13.26-2.69Z"/><path class="cls-2" d="M241.09,191.83V108.49h16.65L257.07,120h.67a31.39,31.39,0,0,1,6.33-8.08,23,23,0,0,1,6-3.65,17.93,17.93,0,0,1,6.78-1.21,20.07,20.07,0,0,1,16.85,8.36q6.33,8.35,6.33,22.22,0,15-7,24.18T274.12,171a21.89,21.89,0,0,1-9-1.83,22.12,22.12,0,0,1-7.37-5.43h-.67l.67,5.85v22.23Zm16.65-39.57a19.52,19.52,0,0,0,5.52,4.06,14.29,14.29,0,0,0,6.47,1.69,10.72,10.72,0,0,0,6.5-2.09c1.89-1.39,3.32-3.69,4.27-6.9a38.72,38.72,0,0,0,1.44-11.08q0-8.12-2.9-11.77a9.35,9.35,0,0,0-7.74-3.67,11.94,11.94,0,0,0-6.78,2.2c-2.16,1.47-4.41,4-6.78,7.67Z"/><path class="cls-2" d="M51.71,197.3v-9.61h1.92L53.55,189h.08a3.36,3.36,0,0,1,.73-.93,2.56,2.56,0,0,1,.69-.42,1.94,1.94,0,0,1,.78-.14,2.3,2.3,0,0,1,1.94,1,4.12,4.12,0,0,1,.73,2.56,4.56,4.56,0,0,1-.8,2.8,2.61,2.61,0,0,1-2.18,1.05,2.54,2.54,0,0,1-1-.21,2.45,2.45,0,0,1-.85-.63h-.08l.08.68v2.56Zm1.92-4.56a2.26,2.26,0,0,0,.64.47,1.6,1.6,0,0,0,.74.19,1.24,1.24,0,0,0,.75-.24,1.5,1.5,0,0,0,.5-.8,4.45,4.45,0,0,0,.16-1.27,2.21,2.21,0,0,0-.33-1.36,1.1,1.1,0,0,0-.9-.42,1.36,1.36,0,0,0-.78.25,3,3,0,0,0-.78.88Z"/><path class="cls-2" d="M62.17,194.74v-9H59.6v-1.28h4.49v10.25Z"/><path class="cls-2" d="M71.79,194a2.11,2.11,0,0,1-.81.68,2.36,2.36,0,0,1-1.09.23,2.46,2.46,0,0,1-1.67-.6,2,2,0,0,1-.69-1.61,2.28,2.28,0,0,1,.35-1.25,2.4,2.4,0,0,1,1.08-.87,6,6,0,0,1,2.26-.32H72v-.34a1,1,0,0,0-.38-.83,2,2,0,0,0-1.15-.27,5.58,5.58,0,0,0-2.32.6V188a7.67,7.67,0,0,1,1.47-.39,9.44,9.44,0,0,1,1.2-.09,5.3,5.3,0,0,1,1.58.21,2.2,2.2,0,0,1,1.09.74,2.92,2.92,0,0,1,.43,1.84v2.39a1.64,1.64,0,0,0,0,.51.39.39,0,0,0,.14.17.48.48,0,0,0,.24.06l.23,0v1.27a3.2,3.2,0,0,1-1.06.21,2,2,0,0,1-.61-.09,1.62,1.62,0,0,1-.49-.25A1.5,1.5,0,0,1,72,194Zm.19-1.31v-1.14h-.7a2.35,2.35,0,0,0-1.51.33,1,1,0,0,0-.34.72.75.75,0,0,0,.29.62,1,1,0,0,0,.69.25,1.89,1.89,0,0,0,.71-.18A3.13,3.13,0,0,0,72,192.68Z"/><path class="cls-2" d="M76,194.5v-1.45a8.3,8.3,0,0,0,2.58.57,2.34,2.34,0,0,0,1-.19.63.63,0,0,0,.39-.6.54.54,0,0,0-.17-.4,2,2,0,0,0-.51-.29l-1.51-.59c-1.17-.47-1.76-1.09-1.76-1.87a1.76,1.76,0,0,1,.39-1.1,2.53,2.53,0,0,1,1.07-.78,5.51,5.51,0,0,1,1.95-.27,11,11,0,0,1,2.18.26v1.48a6.91,6.91,0,0,0-2.24-.46,2.61,2.61,0,0,0-1,.15c-.25.11-.38.26-.38.46a.4.4,0,0,0,.13.31,3.24,3.24,0,0,0,.82.42l1.67.68a2.54,2.54,0,0,1,1.17.81,1.91,1.91,0,0,1-.08,2.14,2.35,2.35,0,0,1-1.11.82,4.5,4.5,0,0,1-1.69.3c-.27,0-.6,0-1,0A15,15,0,0,1,76,194.5Z"/><path class="cls-2" d="M90.15,194.57a7.48,7.48,0,0,1-2,.33,3.74,3.74,0,0,1-1.39-.26,2.14,2.14,0,0,1-1-.72,2.5,2.5,0,0,1-.31-1.37v-3.42H83.94v-1.28h1.52v-1.76h1.92v1.76H90v1.28H87.38v3a1.67,1.67,0,0,0,.17.91,1,1,0,0,0,.46.34,1.77,1.77,0,0,0,.61.1,4,4,0,0,0,1.53-.31Z"/><path class="cls-2" d="M94.85,194.74V189H92.29v-1.28h4.48v7.05Zm0-8.33v-1.92h1.92v1.92Z"/><path class="cls-2" d="M104.47,197.3v-2.56l.07-1.33h-.07a3.94,3.94,0,0,1-.74.93,2.29,2.29,0,0,1-.69.42,1.94,1.94,0,0,1-.78.14,2.31,2.31,0,0,1-1.93-1,4.07,4.07,0,0,1-.74-2.57,4.55,4.55,0,0,1,.8-2.79,2.62,2.62,0,0,1,2.19-1.05,2.71,2.71,0,0,1,1,.2,2.54,2.54,0,0,1,.85.63h.16l.15-.67h1.61v9.61Zm0-7.61a2.08,2.08,0,0,0-.64-.47,1.61,1.61,0,0,0-.74-.2,1.24,1.24,0,0,0-.75.24,1.47,1.47,0,0,0-.49.8,4.1,4.1,0,0,0-.18,1.27,2.2,2.2,0,0,0,.34,1.36,1.06,1.06,0,0,0,.9.43,1.33,1.33,0,0,0,.78-.26,3.27,3.27,0,0,0,.78-.87Z"/><path class="cls-2" d="M114.12,187.69v7.05H112.2l.08-1.36h-.09a2.48,2.48,0,0,1-.8,1.09,2.23,2.23,0,0,1-1.43.43,2,2,0,0,1-1.51-.59,2.49,2.49,0,0,1-.58-1.8v-4.82h1.93v4.39a1.25,1.25,0,0,0,.21.84.78.78,0,0,0,.6.22,1.43,1.43,0,0,0,.87-.31,3.21,3.21,0,0,0,.72-.75v-4.39Z"/><path class="cls-2" d="M122.49,194.45a11.23,11.23,0,0,1-2.9.45,4.55,4.55,0,0,1-2.08-.44,3.07,3.07,0,0,1-1.39-1.3,3.77,3.77,0,0,1-.49-1.93,4.06,4.06,0,0,1,.46-1.92,3,3,0,0,1,1.32-1.33,4.12,4.12,0,0,1,1.92-.45,3,3,0,0,1,2.3.93,3.67,3.67,0,0,1,.86,2.58v.71h-4.77a1.62,1.62,0,0,0,.74,1.28,2.77,2.77,0,0,0,1.58.43,7.32,7.32,0,0,0,2.45-.5Zm-4.83-4h3c0-1.11-.47-1.66-1.4-1.66a1.39,1.39,0,0,0-1.08.44A2.09,2.09,0,0,0,117.66,190.47Z"/><path class="cls-2" d="M124.07,194.5v-1.45a8.36,8.36,0,0,0,2.58.57,2.34,2.34,0,0,0,1-.19.63.63,0,0,0,.39-.6.54.54,0,0,0-.17-.4,2,2,0,0,0-.51-.29l-1.5-.59c-1.18-.47-1.77-1.09-1.77-1.87a1.72,1.72,0,0,1,.4-1.1,2.47,2.47,0,0,1,1.07-.78,5.45,5.45,0,0,1,1.94-.27,11,11,0,0,1,2.18.26v1.48a6.91,6.91,0,0,0-2.23-.46,2.63,2.63,0,0,0-1,.15c-.25.11-.38.26-.38.46a.44.44,0,0,0,.13.31,3.24,3.24,0,0,0,.82.42l1.67.68a2.54,2.54,0,0,1,1.17.81,1.86,1.86,0,0,1-.08,2.14,2.35,2.35,0,0,1-1.11.82,4.5,4.5,0,0,1-1.69.3c-.27,0-.6,0-1,0A15,15,0,0,1,124.07,194.5Z"/><path class="cls-2" d="M144.84,194.74l-.3-.37-.14-.18a3.27,3.27,0,0,1-1,.57,3.41,3.41,0,0,1-1.24.22,2.93,2.93,0,0,1-1.59-.39,2.79,2.79,0,0,1-1-1.07,3.08,3.08,0,0,1-.36-1.47,3.25,3.25,0,0,1,2-2.93l-.1-.17a8.47,8.47,0,0,1-.67-1.36,2.36,2.36,0,0,1-.15-.74,1.74,1.74,0,0,1,.31-1,2,2,0,0,1,.86-.73,2.92,2.92,0,0,1,1.26-.25,3.24,3.24,0,0,1,1.25.23,1.8,1.8,0,0,1,.83.71,1.84,1.84,0,0,1,.3,1,2.71,2.71,0,0,1-.37,1.22,3.6,3.6,0,0,1-1.4,1.27l.14.24A24.18,24.18,0,0,0,145,192a3,3,0,0,0,.36-1,13.75,13.75,0,0,0,.06-1.57V189h1.61a9,9,0,0,1-.21,2.07,4.94,4.94,0,0,1-1.08,1.95l.13.19c.49.71.87,1.22,1.12,1.52Zm-1.11-1.57c-.2-.27-.44-.63-.71-1.08l-.51-.82c-.2-.33-.41-.7-.62-1.1a1.93,1.93,0,0,0-.68,1.5,1.78,1.78,0,0,0,.49,1.36,1.48,1.48,0,0,0,1.05.46A1.83,1.83,0,0,0,143.73,193.17Zm-.91-4.82a2,2,0,0,0,.76-1.47.71.71,0,0,0-.21-.57.65.65,0,0,0-.92,0,.73.73,0,0,0-.21.54,2.89,2.89,0,0,0,.45,1.23Z"/><path class="cls-2" d="M162.31,194.59l-.84.18-.85.1-.77,0a4.38,4.38,0,0,1-3-1,3.41,3.41,0,0,1-1.11-2.7,3.68,3.68,0,0,1,1-2.67,4,4,0,0,1,3-1,9.64,9.64,0,0,1,2.53.31v1.42a6.65,6.65,0,0,0-2.31-.45,2.31,2.31,0,0,0-1.53.54,2,2,0,0,0-.64,1.65,2.85,2.85,0,0,0,.3,1.32,2,2,0,0,0,.94.91,3.3,3.3,0,0,0,1.4.31,5.52,5.52,0,0,0,1.84-.35Z"/><path class="cls-2" d="M167.11,194.9a3.81,3.81,0,0,1-2.59-.94,4,4,0,0,1,0-5.49,4.07,4.07,0,0,1,5.2,0,4,4,0,0,1,0,5.49A3.86,3.86,0,0,1,167.11,194.9Zm0-1.28a1.42,1.42,0,0,0,1.18-.56,3.09,3.09,0,0,0,.43-1.85,3,3,0,0,0-.44-1.84,1.49,1.49,0,0,0-2.33,0,3.05,3.05,0,0,0-.44,1.84,3.09,3.09,0,0,0,.44,1.85A1.41,1.41,0,0,0,167.11,193.62Z"/><path class="cls-2" d="M175.94,194.74h-1.61v-4.69a1.6,1.6,0,0,0-.07-.64.24.24,0,0,0-.21-.12c-.27,0-.52.29-.76.89v4.56h-1.6v-7.05h1.6l-.08,1.36h.09a3.3,3.3,0,0,1,.6-1.08,1.09,1.09,0,0,1,.86-.44,1.07,1.07,0,0,1,.78.33,1.81,1.81,0,0,1,.4,1.19H176a3.18,3.18,0,0,1,.54-1.09,1,1,0,0,1,.83-.43,1,1,0,0,1,.64.22,1.22,1.22,0,0,1,.42.64,6.35,6.35,0,0,1,.14,1.64v4.71H177v-4.69a1.6,1.6,0,0,0-.07-.64.24.24,0,0,0-.21-.12c-.27,0-.52.29-.75.89Z"/><path class="cls-2" d="M179.9,197.3v-9.61h1.92l-.08,1.33h.08a3.36,3.36,0,0,1,.73-.93,2.29,2.29,0,0,1,.69-.42,1.94,1.94,0,0,1,.78-.14,2.3,2.3,0,0,1,1.94,1,4.12,4.12,0,0,1,.73,2.56,4.56,4.56,0,0,1-.8,2.8,2.61,2.61,0,0,1-2.18,1.05,2.51,2.51,0,0,1-1-.21,2.45,2.45,0,0,1-.85-.63h-.08l.08.68v2.56Zm1.92-4.56a2.36,2.36,0,0,0,.63.47,1.67,1.67,0,0,0,.75.19,1.24,1.24,0,0,0,.75-.24,1.43,1.43,0,0,0,.49-.8,4.44,4.44,0,0,0,.17-1.27,2.21,2.21,0,0,0-.33-1.36,1.11,1.11,0,0,0-.9-.42,1.36,1.36,0,0,0-.78.25,3,3,0,0,0-.78.88Z"/><path class="cls-2" d="M191.15,194.9a3.85,3.85,0,0,1-2.6-.94,4,4,0,0,1,0-5.49,3.82,3.82,0,0,1,2.6-.94,3.86,3.86,0,0,1,2.61.94,4,4,0,0,1,0,5.49A3.82,3.82,0,0,1,191.15,194.9Zm0-1.28a1.41,1.41,0,0,0,1.17-.56,3.09,3.09,0,0,0,.44-1.85,3.05,3.05,0,0,0-.44-1.84,1.49,1.49,0,0,0-2.33,0,3.05,3.05,0,0,0-.44,1.84,3.09,3.09,0,0,0,.44,1.85A1.41,1.41,0,0,0,191.15,193.62Z"/><path class="cls-2" d="M196.18,194.5v-1.45a8.3,8.3,0,0,0,2.58.57,2.37,2.37,0,0,0,1-.19.63.63,0,0,0,.39-.6.52.52,0,0,0-.18-.4,2.06,2.06,0,0,0-.5-.29l-1.51-.59c-1.18-.47-1.77-1.09-1.77-1.87a1.77,1.77,0,0,1,.4-1.1,2.53,2.53,0,0,1,1.07-.78,5.47,5.47,0,0,1,1.95-.27,11.12,11.12,0,0,1,2.18.26v1.48a6.91,6.91,0,0,0-2.24-.46,2.67,2.67,0,0,0-1,.15c-.25.11-.37.26-.37.46a.4.4,0,0,0,.13.31,3.24,3.24,0,0,0,.82.42l1.66.68a2.52,2.52,0,0,1,1.18.81,1.94,1.94,0,0,1,.29,1,1.87,1.87,0,0,1-.37,1.13,2.43,2.43,0,0,1-1.12.82,4.45,4.45,0,0,1-1.68.3c-.27,0-.61,0-1,0A14.69,14.69,0,0,1,196.18,194.5Z"/><path class="cls-2" d="M207,194.74V189h-2.57v-1.28h4.49v7.05Zm0-8.33v-1.92h1.92v1.92Z"/><path class="cls-2" d="M218.34,194.57a7.48,7.48,0,0,1-2,.33,3.74,3.74,0,0,1-1.39-.26,2.14,2.14,0,0,1-1-.72,2.42,2.42,0,0,1-.31-1.37v-3.42h-1.52v-1.28h1.52v-1.76h1.92v1.76h2.61v1.28h-2.61v3a1.67,1.67,0,0,0,.17.91.93.93,0,0,0,.46.34,1.77,1.77,0,0,0,.61.1,4,4,0,0,0,1.53-.31Z"/><path class="cls-2" d="M226.64,194.45a11.17,11.17,0,0,1-2.9.45,4.58,4.58,0,0,1-2.08-.44,3.12,3.12,0,0,1-1.39-1.3,3.86,3.86,0,0,1-.48-1.93,4.18,4.18,0,0,1,.45-1.92,3,3,0,0,1,1.33-1.33,4.08,4.08,0,0,1,1.91-.45,3,3,0,0,1,2.31.93,3.67,3.67,0,0,1,.85,2.58v.71h-4.76a1.62,1.62,0,0,0,.73,1.28,2.77,2.77,0,0,0,1.58.43,7.27,7.27,0,0,0,2.45-.5Zm-4.82-4h3c0-1.11-.47-1.66-1.4-1.66a1.37,1.37,0,0,0-1.07.44A2,2,0,0,0,221.82,190.47Z"/><path class="cls-2" d="M228.23,194.5v-1.45a8.31,8.31,0,0,0,2.57.57,2.31,2.31,0,0,0,1-.19.64.64,0,0,0,.4-.6.52.52,0,0,0-.18-.4,2.06,2.06,0,0,0-.5-.29l-1.51-.59c-1.18-.47-1.77-1.09-1.77-1.87a1.72,1.72,0,0,1,.4-1.1,2.47,2.47,0,0,1,1.07-.78,5.47,5.47,0,0,1,1.95-.27,11,11,0,0,1,2.17.26v1.48a6.86,6.86,0,0,0-2.23-.46,2.67,2.67,0,0,0-1,.15c-.25.11-.38.26-.38.46a.41.41,0,0,0,.14.31,3.3,3.3,0,0,0,.81.42l1.67.68a2.52,2.52,0,0,1,1.18.81,1.91,1.91,0,0,1-.08,2.14,2.43,2.43,0,0,1-1.12.82,4.5,4.5,0,0,1-1.69.3c-.27,0-.6,0-1,0A14.69,14.69,0,0,1,228.23,194.5Z"/></svg>