<?xml version="1.0" standalone="no"?>
<svg version="1.0" xmlns="http://www.w3.org/2000/svg"
 width="122.000000pt" height="113.000000pt" viewBox="0 0 122.000000 113.000000"
 preserveAspectRatio="xMidYMid meet">
<metadata>
Created by potrace 1.16, written by Peter Selinger 2001-2019
</metadata>
<g transform="translate(0.000000,113.000000) scale(0.100000,-0.100000)"
fill="#000000" stroke="none">
<path d="M1047 603 c-2 -4 -10 -38 -17 -74 -16 -88 -40 -125 -98 -152 -44 -21
-61 -22 -302 -22 -222 0 -261 2 -302 18 -43 17 -84 53 -115 103 -9 15 -9 11 0
-15 17 -48 58 -86 114 -105 64 -22 303 -31 465 -18 143 12 197 32 223 83 25
47 55 222 32 182z"/>
</g>
</svg>
