<svg id="Layer_1" data-name="Layer 1" xmlns="http://www.w3.org/2000/svg" viewBox="0 0 273.65 234.74">
    <defs>
        <style>.cls-1{fill:#e9a720;}.cls-2{fill:#1e407a;}</style>
    </defs>
    <path class="cls-1" d="M0,233.8V182.89H8.36V233.8Z"/>
    <path class="cls-1"
          d="M18.18,182.89h20a22.85,22.85,0,0,1,17.38,7.35,27,27,0,0,1,0,36.21,22.85,22.85,0,0,1-17.38,7.35h-20Zm8.36,42.91H38.18a15.11,15.11,0,0,0,11.71-5,19.36,19.36,0,0,0,0-25,15.11,15.11,0,0,0-11.71-5H26.54Z"/>
    <path class="cls-2"
          d="M108,233.8H98.83L88.07,215.25H78.18V233.8H69.81V182.89H90.17a15.62,15.62,0,0,1,11.57,4.8,16,16,0,0,1,2,20.47A16.07,16.07,0,0,1,96.43,214ZM90.17,190.75h-12v17h12a7.5,7.5,0,0,0,5.68-2.47,9,9,0,0,0,0-12.07A7.5,7.5,0,0,0,90.17,190.75Z"/>
    <path class="cls-2"
          d="M146.75,219H117.81a10.12,10.12,0,0,0,4,6.33,12.7,12.7,0,0,0,7.68,2.25q6.18,0,9.38-4.51l6.47,3.79q-5.31,7.92-15.93,7.92-8.79,0-14.32-5.38A19.95,19.95,0,0,1,115,202q5.31-5.53,13.82-5.53a17,17,0,0,1,13.09,5.6,19.35,19.35,0,0,1,5.17,13.6A20.24,20.24,0,0,1,146.75,219Zm-29-6.4h21.38a10.88,10.88,0,0,0-3.6-6.61,10.26,10.26,0,0,0-6.8-2.33,11,11,0,0,0-7.27,2.4A10.8,10.8,0,0,0,117.74,212.56Z"/>
    <path class="cls-2"
          d="M172.72,196.49a13.32,13.32,0,0,1,10.14,4q3.82,4,3.82,10.94V233.8h-7.86V212.27a8.43,8.43,0,0,0-2.18-6.25,8,8,0,0,0-6-2.18,8.77,8.77,0,0,0-6.76,2.65q-2.47,2.65-2.48,7.82V233.8h-7.85V197.44h7.85v4.65C163.87,198.36,167.62,196.49,172.72,196.49Z"/>
    <path class="cls-2"
          d="M215,197.44V205h-9v17.45a4.35,4.35,0,0,0,1,3.24,4.57,4.57,0,0,0,3,1.09,49.73,49.73,0,0,0,5,0v7.06q-9,1.09-12.94-1.57t-3.93-9.78V205h-6.69v-7.56h6.69v-7.86l7.85-2.32v10.18Z"/>
    <path class="cls-2"
          d="M249.15,202.6v-5.16H257V233.8h-7.85v-5.24q-4.44,6.18-12.73,6.18a17.12,17.12,0,0,1-12.8-5.52,20.07,20.07,0,0,1,0-27.2,17.1,17.1,0,0,1,12.8-5.53Q244.71,196.49,249.15,202.6ZM229.44,224a12,12,0,0,0,16.43,0,11.45,11.45,0,0,0,3.28-8.36,11.2,11.2,0,0,0-3.28-8.29,11.75,11.75,0,0,0-16.43,0,11.23,11.23,0,0,0-3.27,8.29A11.65,11.65,0,0,0,229.44,224Z"/>
    <path class="cls-2" d="M273.65,233.8H265.8V180.71h7.85Z"/>
    <path class="cls-1"
          d="M71.8,52V94.9a61,61,0,0,0,61,61h7.91a61,61,0,0,0,61-61V52ZM175.73,92.05a37.87,37.87,0,0,1-37.86,37.87h-2.23A37.87,37.87,0,0,1,97.78,92.05V78h77.95Z"/>
    <rect class="cls-1" x="71.8" width="64.96" height="25.98"/>
    <rect class="cls-1" x="149.74" width="25.98" height="25.98"/>
    <rect class="cls-1" x="188.72" width="12.99" height="25.98"/>
</svg>
